<mxfile host="app.diagrams.net" modified="2024-05-18T07:19:26.915Z" agent="Mozilla/5.0 (Windows NT 10.0; Win64; x64) AppleWebKit/537.36 (KHTML, like Gecko) Chrome/125.0.0.0 Safari/537.36" version="24.4.4" etag="NmuU_lw4IlD5bBlU-tJk" type="github">
  <diagram name="Page-1" id="H5TjBF7Jvzgx16n45Mok">
    <mxGraphModel>
      <root>
        <mxCell id="0" />
        <mxCell id="1" parent="0" />
      </root>
    </mxGraphModel>
  </diagram>
</mxfile>
